<svg xmlns="http://www.w3.org/2000/svg" viewBox="0 0 128 128" role="img" aria-label="PhonePe">
  <rect width="128" height="128" rx="24" fill="#5f259f"/>
  <g fill="#ffffff">
    <path d="M64 28c-19.9 0-36 16.1-36 36s16.1 36 36 36 36-16.1 36-36-16.1-36-36-36zm0 8c15.5 0 28 12.5 28 28s-12.5 28-28 28-28-12.5-28-28 12.5-28 28-28z" opacity=".15"/>
    <path d="M58.2 52.5h11.6v18.2c-.5.25-1.2.33-1.7.33-1.3 0-2-.65-2-2.1V52.5zm5.4 4.5c-.8 0-1.5.6-1.5 1.5v2.8h3v-4.3h-1.5zm12.8 4.6h-3.2v-1.1c0-.9-.7-1.6-1.6-1.6h-2.5v14.2h2.5V68.8h1.8c1.5 0 2.7-1.2 2.7-2.7V61.6zM48 56.2h-4.1c-.9 0-1.6.7-1.6 1.6v8.4c0 .9.7 1.6 1.6 1.6h4.1V56.2zm8.2 8.8h2.1c1 0 1.8-.8 1.8-1.8v-4.2c0-1-.8-1.8-1.8-1.8h-2.1v7.8z"/>
  </g>
  <text x="64" y="108" text-anchor="middle" fill="#ffffff" font-family="system-ui,sans-serif" font-size="16" font-weight="700" letter-spacing="0.5">PhonePe</text>
</svg>
